<svg xmlns="http://www.w3.org/2000/svg" width="15" height="18" viewBox="0 0 15 18" fill="none">
  <g clip-path="url(#clip0_1_46)">
    <path d="M11.9543 9.44648C11.9473 8.15625 12.5309 7.18242 13.7121 6.46523C13.0512 5.51953 12.0527 4.99922 10.7344 4.89727C9.48633 4.79883 8.12227 5.625 7.62305 5.625C7.0957 5.625 5.88633 4.93242 4.93711 4.93242C2.97539 4.96406 0.890625 6.49688 0.890625 9.61523C0.890625 10.5363 1.05937 11.4879 1.39687 12.4699C1.84688 13.7602 3.47109 16.9242 5.16563 16.8715C6.05156 16.8504 6.67734 16.2422 7.83047 16.2422C8.94844 16.2422 9.52851 16.8715 10.5164 16.8715C12.225 16.8469 13.6945 13.9711 14.1234 12.6773C11.8313 11.598 11.9543 9.51328 11.9543 9.44648ZM9.96445 3.67383C10.9242 2.53477 10.8363 1.49766 10.8082 1.125C9.96094 1.17422 8.98008 1.70156 8.42109 2.35195C7.80586 3.04805 7.44375 3.90938 7.52109 4.87969C8.43867 4.95 9.27539 4.47891 9.96445 3.67383Z" fill="#6B7280"/>
  </g>
  <defs>
    <clipPath id="clip0_1_46">
      <path d="M0.75 0H14.25V18H0.75V0Z" fill="white"/>
    </clipPath>
  </defs>
</svg>