<svg xmlns="http://www.w3.org/2000/svg" width="14" height="16" viewBox="0 0 14 16" fill="none">
  <g clip-path="url(#clip0_166_7606)">
    <path d="M0.293701 7.29365C-0.0969238 7.68428 -0.0969238 8.31865 0.293701 8.70928L5.2937 13.7093C5.68433 14.0999 6.3187 14.0999 6.70933 13.7093C7.09995 13.3187 7.09995 12.6843 6.70933 12.2937L3.41245 8.9999H13C13.5531 8.9999 14 8.55303 14 7.9999C14 7.44678 13.5531 6.9999 13 6.9999H3.41558L6.7062 3.70615C7.09683 3.31553 7.09683 2.68115 6.7062 2.29053C6.31558 1.8999 5.6812 1.8999 5.29058 2.29053L0.290576 7.29053L0.293701 7.29365Z" fill="#4B5563"/>
  </g>
  <defs>
    <clipPath id="clip0_166_7606">
      <path d="M0 0H14V16H0V0Z" fill="white"/>
    </clipPath>
  </defs>
</svg>