<svg xmlns="http://www.w3.org/2000/svg" width="19" height="20" viewBox="0 0 19 20" fill="none">
  <g clip-path="url(#clip0_166_7271)">
    <path d="M12.1562 0H7.15625H5.90625C5.21484 0 4.65625 0.558594 4.65625 1.25C4.65625 1.94141 5.21484 2.5 5.90625 2.5V7.6875C5.90625 8.14844 5.77734 8.60547 5.53516 8.99609L1.30859 15.8672C1.04688 16.2969 0.90625 16.7852 0.90625 17.2891C0.90625 18.7852 2.12109 20 3.61719 20H15.6953C17.1914 20 18.4062 18.7852 18.4062 17.2891C18.4062 16.7891 18.2656 16.2969 18.0039 15.8672L13.7773 9C13.5352 8.60547 13.4062 8.15234 13.4062 7.69141V2.5C14.0977 2.5 14.6562 1.94141 14.6562 1.25C14.6562 0.558594 14.0977 0 13.4062 0H12.1562ZM8.40625 7.6875V2.5H10.9062V7.6875C10.9062 8.61328 11.1641 9.51953 11.6484 10.3086L12.9961 12.5H6.31641L7.66406 10.3086C8.14844 9.51953 8.40625 8.61328 8.40625 7.6875Z" fill="#059669"/>
  </g>
  <defs>
    <clipPath id="clip0_166_7271">
      <path d="M0.90625 0H18.4062V20H0.90625V0Z" fill="white"/>
    </clipPath>
  </defs>
</svg>