<svg xmlns="http://www.w3.org/2000/svg" width="15" height="16" viewBox="0 0 15 16" fill="none">
  <g clip-path="url(#clip0_166_7264)">
    <path d="M14.3625 8.70615C14.7531 8.31553 14.7531 7.68115 14.3625 7.29053L9.3625 2.29053C8.97188 1.8999 8.3375 1.8999 7.94688 2.29053C7.55625 2.68115 7.55625 3.31553 7.94688 3.70615L11.2437 6.9999H1.65625C1.10312 6.9999 0.65625 7.44678 0.65625 7.9999C0.65625 8.55303 1.10312 8.9999 1.65625 8.9999H11.2406L7.95 12.2937C7.55937 12.6843 7.55937 13.3187 7.95 13.7093C8.34062 14.0999 8.975 14.0999 9.36563 13.7093L14.3656 8.70928L14.3625 8.70615Z" fill="#059669"/>
  </g>
  <defs>
    <clipPath id="clip0_166_7264">
      <path d="M0.65625 0H14.6562V16H0.65625V0Z" fill="white"/>
    </clipPath>
  </defs>
</svg>