<svg xmlns="http://www.w3.org/2000/svg" width="18" height="18" viewBox="0 0 18 18" fill="none">
  <g clip-path="url(#clip0_1_39)">
    <path d="M17.6719 9.20391C17.6719 14.1785 14.2652 17.7188 9.23438 17.7188C4.41094 17.7188 0.515625 13.8234 0.515625 9C0.515625 4.17656 4.41094 0.28125 9.23438 0.28125C11.5828 0.28125 13.5586 1.14258 15.0809 2.56289L12.7078 4.84453C9.60351 1.84922 3.83086 4.09922 3.83086 9C3.83086 12.041 6.26016 14.5055 9.23438 14.5055C12.6867 14.5055 13.9805 12.0305 14.1844 10.7473H9.23438V7.74844H17.5348C17.6156 8.19492 17.6719 8.62383 17.6719 9.20391Z" fill="#6B7280"/>
  </g>
  <defs>
    <clipPath id="clip0_1_39">
      <path d="M0.515625 0H17.6719V18H0.515625V0Z" fill="white"/>
    </clipPath>
  </defs>
</svg>