<svg xmlns="http://www.w3.org/2000/svg" width="23" height="20" viewBox="0 0 23 20" fill="none">
  <g clip-path="url(#clip0_166_7286)">
    <path d="M11.1172 3.05078C11.4297 1.98438 12.4062 1.25 13.5156 1.25H21.3281C22.0195 1.25 22.5781 1.80859 22.5781 2.5C22.5781 3.19141 22.0195 3.75 21.3281 3.75H13.5156L9.40234 17.8516C9.26172 18.332 8.85156 18.6797 8.35547 18.7422C7.85938 18.8047 7.375 18.5625 7.125 18.1328L3.10938 11.25H1.32812C0.636719 11.25 0.078125 10.6914 0.078125 10C0.078125 9.30859 0.636719 8.75 1.32812 8.75H3.10938C4 8.75 4.82031 9.22266 5.26953 9.99219L7.81641 14.3594L11.1172 3.05078ZM15.4453 9.11719C15.9336 8.62891 16.7266 8.62891 17.2148 9.11719L18.8281 10.7305L20.4453 9.11328C20.9336 8.625 21.7266 8.625 22.2148 9.11328C22.7031 9.60156 22.7031 10.3945 22.2148 10.8828L20.5977 12.5L22.2148 14.1172C22.7031 14.6055 22.7031 15.3984 22.2148 15.8867C21.7266 16.375 20.9336 16.375 20.4453 15.8867L18.8281 14.2695L17.2109 15.8867C16.7227 16.375 15.9297 16.375 15.4414 15.8867C14.9531 15.3984 14.9531 14.6055 15.4414 14.1172L17.0586 12.5L15.4414 10.8828C14.9531 10.3945 14.9531 9.60156 15.4414 9.11328L15.4453 9.11719Z" fill="#7C3AED"/>
  </g>
  <defs>
    <clipPath id="clip0_166_7286">
      <path d="M0.078125 0H22.5781V20H0.078125V0Z" fill="white"/>
    </clipPath>
  </defs>
</svg>