<svg xmlns="http://www.w3.org/2000/svg" width="20" height="20" viewBox="0 0 20 20" fill="none">
  <path d="M0 0H20V20H0V0Z" stroke="#E5E7EB"/>
  <path d="M9.99999 15.5781C9.53905 15.7773 9.08593 15.957 8.63671 16.1055C9.28905 17.4258 9.84765 17.5 9.99999 17.5C10.1523 17.5 10.707 17.4258 11.3633 16.1055C10.918 15.9531 10.4609 15.7773 9.99999 15.5781ZM17.4219 10C18.7109 11.7656 19.1523 13.5508 18.3437 15C17.5547 16.418 15.9023 16.9258 13.8437 16.6875C12.9844 18.7227 11.6719 20 9.99999 20C8.32812 20 7.01562 18.7227 6.15624 16.6875C4.09765 16.9258 2.4453 16.4219 1.65624 15C0.847649 13.5508 1.28905 11.7656 2.57812 10C1.28905 8.23438 0.847649 6.44922 1.65624 5C2.4453 3.58203 4.09765 3.07422 6.15624 3.3125C7.01562 1.27734 8.32812 0 9.99999 0C11.6719 0 12.9844 1.27734 13.8437 3.3125C15.9023 3.07422 17.5547 3.57812 18.3437 5C19.1523 6.44922 18.7109 8.23438 17.4219 10ZM14.8516 12.6328C14.7851 13.1875 14.6992 13.7266 14.5898 14.2422C15.832 14.2969 16.0976 13.9023 16.1601 13.7852C16.25 13.6211 16.4336 13.0859 15.6953 11.9062C15.4297 12.1523 15.1484 12.3945 14.8516 12.6328ZM14.5898 5.76172C14.6992 6.27344 14.7851 6.8125 14.8516 7.37109C15.1484 7.60938 15.4297 7.85156 15.6953 8.09766C16.4336 6.91797 16.25 6.37891 16.1601 6.21875C16.0976 6.10547 15.832 5.71094 14.5898 5.76172ZM11.3633 3.89453C10.707 2.57422 10.1523 2.5 9.99999 2.5C9.84765 2.5 9.29296 2.57422 8.63671 3.89453C9.08202 4.04688 9.53905 4.22266 9.99999 4.42188C10.4609 4.22266 10.9141 4.04297 11.3633 3.89453ZM5.15234 7.36719C5.21874 6.80859 5.30468 6.27344 5.41406 5.75781C4.17187 5.70312 3.90624 6.09766 3.84374 6.21484C3.7539 6.37891 3.57031 6.91406 4.30859 8.09375C4.57421 7.84766 4.85546 7.60547 5.15234 7.36719ZM4.30468 11.9062C3.5703 13.0859 3.74999 13.6211 3.83984 13.7852C3.90234 13.8984 4.16796 14.293 5.41015 14.2422C5.30077 13.7305 5.21484 13.1914 5.14843 12.6328C4.85156 12.3945 4.5703 12.1523 4.30468 11.9062ZM13.125 10C13.125 9.1712 12.7958 8.37634 12.2097 7.79029C11.6236 7.20424 10.8288 6.875 9.99999 6.875C9.17119 6.875 8.37634 7.20424 7.79028 7.79029C7.20423 8.37634 6.87499 9.1712 6.87499 10C6.87499 10.8288 7.20423 11.6237 7.79028 12.2097C8.37634 12.7958 9.17119 13.125 9.99999 13.125C10.8288 13.125 11.6236 12.7958 12.2097 12.2097C12.7958 11.6237 13.125 10.8288 13.125 10ZM9.99999 8.75C10.3315 8.75 10.6495 8.8817 10.8839 9.11612C11.1183 9.35054 11.25 9.66848 11.25 10C11.25 10.3315 11.1183 10.6495 10.8839 10.8839C10.6495 11.1183 10.3315 11.25 9.99999 11.25C9.66847 11.25 9.35053 11.1183 9.11611 10.8839C8.88169 10.6495 8.74999 10.3315 8.74999 10C8.74999 9.66848 8.88169 9.35054 9.11611 9.11612C9.35053 8.8817 9.66847 8.75 9.99999 8.75Z" fill="#2563EB"/>
</svg>