<svg xmlns="http://www.w3.org/2000/svg" width="28" height="24" viewBox="0 0 28 24" fill="none">
  <g clip-path="url(#clip0_166_7151)">
    <path d="M12.2 22.1016C12.7063 22.2797 13.25 21.9094 13.25 21.375V3.68437C13.25 3.4875 13.175 3.29062 13.0156 3.16875C12.0969 2.4375 9.9875 1.5 7.25 1.5C4.88281 1.5 2.67031 2.12344 1.34844 2.62969C0.81875 2.83594 0.5 3.36094 0.5 3.92813V21.2859C0.5 21.8438 1.1 22.2328 1.62969 22.0594C3.10625 21.5672 5.44531 21 7.25 21C8.83906 21 10.9531 21.6562 12.2 22.1016ZM15.8 22.1016C17.0469 21.6562 19.1609 21 20.75 21C22.5547 21 24.8938 21.5672 26.3703 22.0594C26.9 22.2375 27.5 21.8438 27.5 21.2859V3.92813C27.5 3.36094 27.1813 2.83594 26.6516 2.63438C25.3297 2.12344 23.1172 1.5 20.75 1.5C18.0125 1.5 15.9031 2.4375 14.9844 3.16875C14.8297 3.29062 14.75 3.4875 14.75 3.68437V21.375C14.75 21.9094 15.2984 22.2797 15.8 22.1016Z" fill="#2563EB"/>
  </g>
  <defs>
    <clipPath id="clip0_166_7151">
      <path d="M0.5 0H27.5V24H0.5V0Z" fill="white"/>
    </clipPath>
  </defs>
</svg>