<svg xmlns="http://www.w3.org/2000/svg" width="18" height="24" viewBox="0 0 18 24" fill="none">
  <g clip-path="url(#clip0_166_7160)">
    <path d="M9 0C7.04063 0 5.37187 1.25156 4.75781 3H3C1.34531 3 0 4.34531 0 6V21C0 22.6547 1.34531 24 3 24H15C16.6547 24 18 22.6547 18 21V6C18 4.34531 16.6547 3 15 3H13.2422C12.6281 1.25156 10.9594 0 9 0ZM9 3C9.39782 3 9.77936 3.15804 10.0607 3.43934C10.342 3.72064 10.5 4.10218 10.5 4.5C10.5 4.89782 10.342 5.27936 10.0607 5.56066C9.77936 5.84196 9.39782 6 9 6C8.60218 6 8.22064 5.84196 7.93934 5.56066C7.65804 5.27936 7.5 4.89782 7.5 4.5C7.5 4.10218 7.65804 3.72064 7.93934 3.43934C8.22064 3.15804 8.60218 3 9 3ZM4.95938 10.7484C5.32969 9.70312 6.32344 9 7.43438 9H10.1672C11.8031 9 13.125 10.3266 13.125 11.9578C13.125 13.0172 12.5578 13.9969 11.6391 14.5266L10.125 15.3937C10.1156 16.0031 9.61406 16.5 9 16.5C8.37656 16.5 7.875 15.9984 7.875 15.375V14.7422C7.875 14.3391 8.09063 13.9688 8.44219 13.7672L10.5187 12.5766C10.7391 12.45 10.875 12.2156 10.875 11.9625C10.875 11.5687 10.5562 11.2547 10.1672 11.2547H7.43438C7.275 11.2547 7.13438 11.3531 7.08281 11.5031L7.06406 11.5594C6.85781 12.1453 6.21094 12.45 5.62969 12.2438C5.04844 12.0375 4.73906 11.3906 4.94531 10.8094L4.96406 10.7531L4.95938 10.7484ZM7.5 19.5C7.5 19.1022 7.65804 18.7206 7.93934 18.4393C8.22064 18.158 8.60218 18 9 18C9.39782 18 9.77936 18.158 10.0607 18.4393C10.342 18.7206 10.5 19.1022 10.5 19.5C10.5 19.8978 10.342 20.2794 10.0607 20.5607C9.77936 20.842 9.39782 21 9 21C8.60218 21 8.22064 20.842 7.93934 20.5607C7.65804 20.2794 7.5 19.8978 7.5 19.5Z" fill="#059669"/>
  </g>
  <defs>
    <clipPath id="clip0_166_7160">
      <path d="M0 0H18V24H0V0Z" fill="white"/>
    </clipPath>
  </defs>
</svg>